<?xml version="1.0" encoding="UTF-8" standalone="no"?>
<!-- Created with Inkscape (http://www.inkscape.org/) -->

<svg
   xmlns:dc="http://purl.org/dc/elements/1.1/"
   xmlns:cc="http://creativecommons.org/ns#"
   xmlns:rdf="http://www.w3.org/1999/02/22-rdf-syntax-ns#"
   xmlns:svg="http://www.w3.org/2000/svg"
   xmlns="http://www.w3.org/2000/svg"
   xmlns:sodipodi="http://sodipodi.sourceforge.net/DTD/sodipodi-0.dtd"
   xmlns:inkscape="http://www.inkscape.org/namespaces/inkscape"
   width="744.09448819"
   height="1052.3622047"
   id="svg2"
   version="1.1"
   inkscape:version="0.48.1 r9760"
   sodipodi:docname="newspool.svg"
   inkscape:export-filename="/tmp/newspool.png"
   inkscape:export-xdpi="125.33"
   inkscape:export-ydpi="125.33">
  <defs
     id="defs4" />
  <sodipodi:namedview
     id="base"
     pagecolor="#ffffff"
     bordercolor="#666666"
     borderopacity="1.0"
     inkscape:pageopacity="0.0"
     inkscape:pageshadow="2"
     inkscape:zoom="0.35"
     inkscape:cx="28.610227"
     inkscape:cy="798.03993"
     inkscape:document-units="px"
     inkscape:current-layer="layer1"
     showgrid="false"
     inkscape:window-width="1680"
     inkscape:window-height="975"
     inkscape:window-x="0"
     inkscape:window-y="25"
     inkscape:window-maximized="1" />
  <metadata
     id="metadata7">
    <rdf:RDF>
      <cc:Work
         rdf:about="">
        <dc:format>image/svg+xml</dc:format>
        <dc:type
           rdf:resource="http://purl.org/dc/dcmitype/StillImage" />
        <dc:title></dc:title>
      </cc:Work>
    </rdf:RDF>
  </metadata>
  <g
     inkscape:label="Layer 1"
     inkscape:groupmode="layer"
     id="layer1">
    <path
       style="opacity:0.55731225;fill:#b3b3b3;fill-opacity:1;stroke:#282828;stroke-opacity:1"
       d="m 216.57545,221.68068 c 39.05923,0 78.11846,0 117.17769,0 8.19195,39.13257 -44.22102,25.55952 -67.02904,27.27412 -16.71622,0 -33.43243,0 -50.14865,0 0,-9.09137 0,-18.18275 0,-27.27412 z"
       id="rect2985"
       inkscape:connector-curvature="0" />
    <path
       style="opacity:0.55731225;fill:#b3b3b3;fill-opacity:1;stroke:#282828;stroke-opacity:1"
       d="m 216.43495,268.55124 c 39.05923,0 78.11847,0 117.1777,0 8.19194,39.13258 -44.22103,25.55952 -67.02905,27.27412 -16.71622,0 -33.43243,0 -50.14865,0 0,-9.09137 0,-18.18275 0,-27.27412 z"
       id="rect2985-3"
       inkscape:connector-curvature="0" />
    <path
       style="opacity:0.55731225;fill:#b3b3b3;fill-opacity:1;stroke:#282828;stroke-opacity:1"
       d="m 217.08796,304.2204 c 39.05923,0 78.11847,0 117.1777,0 8.19194,39.13258 -44.22103,25.55952 -67.02905,27.27412 -16.71622,0 -33.43243,0 -50.14865,0 0,-9.09137 0,-18.18275 0,-27.27412 z"
       id="rect2985-6"
       inkscape:connector-curvature="0" />
    <path
       style="opacity:0.55731225;fill:#b3b3b3;fill-opacity:1;stroke:#282828;stroke-opacity:1"
       d="m 188.56167,158.42667 c 36.02877,0 72.05755,0 108.08632,0 -0.5192,18.43475 7.76239,51.92253 -20.64281,43.94163 -29.14784,0 -58.29568,0 -87.44351,0 0,-14.64721 0,-29.29442 0,-43.94163 z"
       id="rect2985-8"
       inkscape:connector-curvature="0" />
    <path
       style="opacity:0.55731225;fill:#b3b3b3;fill-opacity:1;stroke:#282828;stroke-opacity:1"
       d="m 148.50144,245.7485 c 18.85618,0 37.71237,0 56.56855,0 -0.51919,18.43475 7.76239,51.92254 -20.64281,43.94164 -11.97525,0 -23.95049,0 -35.92574,0 0,-14.64721 0,-29.29443 0,-43.94164 z"
       id="rect2985-8-0"
       inkscape:connector-curvature="0" />
    <path
       style="opacity:0.55731225;fill:#b3b3b3;fill-opacity:1;stroke:#282828;stroke-opacity:1"
       d="m 218.07433,346.23563 c 39.05923,0 78.11847,0 117.1777,0 8.19193,39.13256 -44.22103,25.55951 -67.02904,27.27411 -16.71622,0 -33.43244,0 -50.14866,0 0,-9.09137 0,-18.18274 0,-27.27411 z"
       id="rect2985-6-0"
       inkscape:connector-curvature="0" />
    <path
       style="opacity:0.55731225;fill:#b3b3b3;fill-opacity:1;stroke:#282828;stroke-opacity:1"
       d="m 218.01305,389.96985 c 39.05923,0 78.11847,0 117.1777,0 8.19195,39.13257 -44.22102,25.55953 -67.02904,27.27412 -16.71622,0 -33.43244,0 -50.14866,0 0,-9.09137 0,-18.18275 0,-27.27412 z"
       id="rect2985-6-6"
       inkscape:connector-curvature="0" />
    <path
       style="opacity:0.55731225;fill:#b3b3b3;fill-opacity:1;stroke:#282828;stroke-opacity:1"
       d="m 149.46083,319.19736 c 18.85618,0 37.71237,0 56.56855,0 -0.5192,18.43475 7.76239,51.92253 -20.64281,43.94163 -11.97525,0 -23.95049,0 -35.92574,0 0,-14.64721 0,-29.29442 0,-43.94163 z"
       id="rect2985-8-0-4"
       inkscape:connector-curvature="0" />
    <path
       style="opacity:0.55731225;fill:#b3b3b3;fill-opacity:1;stroke:#282828;stroke-opacity:1"
       d="m 150.53226,412.17706 c 18.85618,0 37.71237,0 56.56855,0 -0.51919,18.43475 7.76239,51.92254 -20.64281,43.94164 -11.97525,0 -23.95049,0 -35.92574,0 0,-14.64721 0,-29.29443 0,-43.94164 z"
       id="rect2985-8-0-6"
       inkscape:connector-curvature="0" />
    <path
       style="opacity:0.55731225;fill:#b3b3b3;fill-opacity:1;stroke:#282828;stroke-opacity:1"
       d="m 216.58448,449.08228 c 39.05923,0 78.11847,0 117.1777,0 8.19192,39.13256 -44.22103,25.55951 -67.02905,27.27411 -16.71622,0 -33.43243,0 -50.14865,0 0,-9.09137 0,-18.18274 0,-27.27411 z"
       id="rect2985-6-6-2"
       inkscape:connector-curvature="0" />
    <path
       style="opacity:0.55731225;fill:#b3b3b3;fill-opacity:1;stroke:#282828;stroke-opacity:1"
       d="m 215.21718,490.08191 c 39.05923,0 78.11846,0 117.17769,0 8.19195,39.13257 -44.22102,25.55952 -67.02904,27.27412 -16.71622,0 -33.43243,0 -50.14865,0 0,-9.09137 0,-18.18275 0,-27.27412 z"
       id="rect2985-6-6-2-5"
       inkscape:connector-curvature="0" />
    <path
       style="opacity:0.55731225;fill:#b3b3b3;fill-opacity:1;stroke:#282828;stroke-opacity:1"
       d="m 408.26984,42.259127 c 18.85618,0 37.71237,0 56.56855,0 -0.5192,18.434749 7.76239,51.922534 -20.64281,43.941635 -11.97525,0 -23.95049,0 -35.92574,0 0,-14.647212 0,-29.294423 0,-43.941635 z"
       id="rect2985-8-8"
       inkscape:connector-curvature="0" />
    <path
       style="opacity:0.55731225;fill:#b3b3b3;fill-opacity:1;stroke:#282828;stroke-opacity:1"
       d="m 473.92976,41.248968 c 18.85618,0 37.71236,0 56.56854,0 -0.5192,18.434749 7.76239,51.922534 -20.64281,43.941635 -11.97524,0 -23.95049,0 -35.92573,0 0,-14.647212 0,-29.294423 0,-43.941635 z"
       id="rect2985-8-8-4"
       inkscape:connector-curvature="0" />
    <path
       style="opacity:0.55731225;fill:#b3b3b3;fill-opacity:1;stroke:#282828;stroke-opacity:1"
       d="m 343.62008,43.269279 c 18.85618,0 37.71236,0 56.56854,0 -0.51919,18.43475 7.76239,51.922535 -20.64281,43.941636 -11.97524,0 -23.95049,0 -35.92573,0 0,-14.647212 0,-29.294424 0,-43.941636 z"
       id="rect2985-8-8-7"
       inkscape:connector-curvature="0" />
    <path
       style="opacity:0.55731225;fill:#b3b3b3;fill-opacity:1;stroke:#282828;stroke-opacity:1"
       d="m 560.29783,156.40636 c 36.02877,0 72.05755,0 108.08632,0 -0.5192,18.43475 7.76239,51.92253 -20.64281,43.94163 -29.14784,0 -58.29567,0 -87.44351,0 0,-14.64721 0,-29.29442 0,-43.94163 z"
       id="rect2985-8-2"
       inkscape:connector-curvature="0" />
    <path
       style="opacity:0.55731225;fill:#b3b3b3;fill-opacity:1;stroke:#282828;stroke-opacity:1"
       d="m 587.51255,224.32063 c 39.05923,0 78.11847,0 117.1777,0 8.19194,39.13258 -44.22103,25.55952 -67.02905,27.27412 -16.71622,0 -33.43243,0 -50.14865,0 0,-9.09137 0,-18.18275 0,-27.27412 z"
       id="rect2985-4"
       inkscape:connector-curvature="0" />
    <path
       style="opacity:0.55731225;fill:#b3b3b3;fill-opacity:1;stroke:#282828;stroke-opacity:1"
       d="m 589.39237,278.26227 c 39.05923,0 78.11847,0 117.1777,0 8.19194,39.13258 -44.22103,25.55952 -67.02905,27.27412 -16.71622,0 -33.43243,0 -50.14865,0 0,-9.09137 0,-18.18275 0,-27.27412 z"
       id="rect2985-3-0"
       inkscape:connector-curvature="0" />
    <path
       style="opacity:0.55731225;fill:#b3b3b3;fill-opacity:1;stroke:#282828;stroke-opacity:1"
       d="m 520.44871,241.31738 c 18.85618,0 37.71236,0 56.56854,0 -0.51919,18.43475 7.76239,51.92254 -20.64281,43.94164 -11.97524,0 -23.95049,0 -35.92573,0 0,-14.64721 0,-29.29443 0,-43.94164 z"
       id="rect2985-8-0-9"
       inkscape:connector-curvature="0" />
    <path
       style="fill:none;stroke:#282828;stroke-width:1px;stroke-linecap:butt;stroke-linejoin:miter;stroke-opacity:1"
       d="M 361.80283,77.361925 C 318.6149,104.33836 274.5089,130.81956 237.55406,166.25535"
       id="path3214"
       inkscape:connector-curvature="0" />
    <path
       style="fill:none;stroke:#282828;stroke-width:1px;stroke-linecap:butt;stroke-linejoin:miter;stroke-opacity:1"
       d="m 496.15312,73.321315 c -46.51244,40.570995 -105.34184,63.080645 -164.45338,77.901675 -18.66045,6.76975 -35.64952,17.21379 -52.72942,27.15419"
       id="path3216"
       inkscape:connector-curvature="0" />
    <path
       style="fill:none;stroke:#282828;stroke-width:1px;stroke-linecap:butt;stroke-linejoin:miter;stroke-opacity:1"
       d="M 430.4932,64.229942 C 467.16467,115.10407 534.67635,127.27289 576.96532,171.30611"
       id="path3218"
       inkscape:connector-curvature="0" />
    <path
       style="fill:none;stroke:#282828;stroke-width:1px;stroke-linecap:butt;stroke-linejoin:miter;stroke-opacity:1"
       d="m 516.35617,73.321315 c 46.04616,28.267585 91.77709,58.698995 128.28937,98.994945"
       id="path3220"
       inkscape:connector-curvature="0" />
    <path
       style="fill:none;stroke:#282828;stroke-width:1px;stroke-linecap:butt;stroke-linejoin:miter;stroke-opacity:1"
       d="m 601.20898,194.53962 c -29.90099,10.03931 -49.06302,37.73572 -62.62946,64.64976"
       id="path3222"
       inkscape:connector-curvature="0" />
    <path
       style="fill:none;stroke:#282828;stroke-width:1px;stroke-linecap:butt;stroke-linejoin:miter;stroke-opacity:1"
       d="m 186.03628,177.36703 c -28.37294,0.13464 -65.53626,-1.41133 -81.68228,26.83874 -6.974753,33.87459 -2.75669,69.7944 -4.534976,104.45534 0.719416,41.02948 1.904746,82.81491 11.932526,122.69849 9.78685,16.67273 31.65916,8.64135 47.01061,10.66739"
       id="path3226"
       inkscape:connector-curvature="0" />
    <path
       style="fill:none;stroke:#282828;stroke-width:1px;stroke-linecap:butt;stroke-linejoin:miter;stroke-opacity:1"
       d="m 98.15301,344.0422 c 18.85005,-2.24486 37.85921,4.47776 56.56854,0"
       id="path3228"
       inkscape:connector-curvature="0" />
    <path
       style="fill:none;stroke:#282828;stroke-width:1px;stroke-linecap:butt;stroke-linejoin:miter;stroke-opacity:1"
       d="m 100.17331,271.31121 c 17.52953,-1.88686 35.00464,3.08496 52.52794,1.01016"
       id="path3230"
       inkscape:connector-curvature="0" />
    <path
       style="fill:none;stroke:#282828;stroke-width:1px;stroke-linecap:butt;stroke-linejoin:miter;stroke-opacity:1"
       d="m 624.44249,196.55993 c 27.99787,33.08773 -19.4273,42.08472 -43.7991,44.87689 -25.51564,3.93474 -27.42577,31.53539 -0.91419,35.56918 22.84594,10.95759 58.61618,8.77221 69.57252,34.58976 -0.0579,8.86776 -2.22435,17.5445 -2.63588,26.38552"
       id="path3232"
       inkscape:connector-curvature="0" />
    <path
       style="fill:none;stroke:#282828;stroke-width:1px;stroke-linecap:butt;stroke-linejoin:miter;stroke-opacity:1"
       d="m 244.62513,183.42794 c 26.06236,24.52893 2.22151,71.71337 -33.52628,59.97169 -35.47854,-11.63252 -48.6629,48.54118 -5.42843,33.95121 23.42761,-9.74432 58.28737,11.63926 51.87677,38.31718 -12.91042,26.84984 -72.80641,1.7461 -70.92078,35.69539 22.37568,10.37373 62.89787,-8.77075 64.3789,32.33536 0.80777,43.51825 -52.70237,16.98644 -71.1329,42.68314 -0.16449,29.19993 46.71974,12.35891 64.4525,28.04183 28.73499,12.58108 41.36633,46.13637 35.02261,75.67822 0.006,3.35322 -0.92541,6.60659 -1.38735,9.90983"
       id="path3234"
       inkscape:connector-curvature="0" />
    <path
       style="opacity:0.55731225;fill:#b3b3b3;fill-opacity:1;stroke:#282828;stroke-opacity:1"
       d="m 551.71152,43.269278 c 18.85618,0 37.71237,0 56.56855,0 -0.5192,18.434749 7.76239,51.922534 -20.64281,43.941635 -11.97525,0 -23.95049,0 -35.92574,0 0,-14.647212 0,-29.294423 0,-43.941635 z"
       id="rect2985-8-8-4-6"
       inkscape:connector-curvature="0" />
    <path
       style="opacity:0.55731225;fill:#b3b3b3;fill-opacity:1;stroke:#282828;stroke-opacity:1"
       d="m 269.87894,42.259125 c 18.85618,0 37.71237,0 56.56855,0 -0.5192,18.434749 7.76239,51.922534 -20.64281,43.941635 -11.97525,0 -23.95049,0 -35.92574,0 0,-14.647212 0,-29.294423 0,-43.941635 z"
       id="rect2985-8-8-4-7"
       inkscape:connector-curvature="0" />
    <path
       style="opacity:0.55731225;fill:#b3b3b3;fill-opacity:1;stroke:#282828;stroke-opacity:1"
       d="m 197.14796,41.248974 c 18.85618,0 37.71236,0 56.56854,0 -0.5192,18.434749 7.76239,51.922534 -20.64281,43.941635 -11.97524,0 -23.95049,0 -35.92573,0 0,-14.647212 0,-29.294423 0,-43.941635 z"
       id="rect2985-8-8-4-5"
       inkscape:connector-curvature="0" />
    <path
       style="fill:none;stroke:#282828;stroke-width:1px;stroke-linecap:butt;stroke-linejoin:miter;stroke-opacity:1"
       d="m 309.27489,277.37213 c 26.81835,6.20429 66.98266,-2.00183 71.07627,-34.27087 C 374.68431,201.55049 367.02137,155.25737 333.82219,125.70229 311.89643,111.15947 301.16853,87.039605 290.082,64.229942"
       id="path3268"
       inkscape:connector-curvature="0" />
    <path
       style="fill:none;stroke:#282828;stroke-width:1px;stroke-linecap:butt;stroke-linejoin:miter;stroke-opacity:1"
       d="m 310.28505,357.17418 c 48.19704,17.61126 100.11386,-23.31016 107.37343,-71.1505 21.25098,-69.69864 65.46872,-130.94422 117.42634,-181.00653 13.58433,-9.742827 30.69928,-15.841159 39.86019,-30.685682"
       id="path3270"
       inkscape:connector-curvature="0" />
    <path
       style="fill:none;stroke:#282828;stroke-width:1px;stroke-linecap:butt;stroke-linejoin:miter;stroke-opacity:1"
       d="m 703.23439,241.00664 c 29.341,9.8308 58.47082,-21.03518 49.67379,-49.82033 C 742.58338,162.8275 710.47779,151.88086 691.61261,129.40995 660.65058,104.11614 625.98931,83.694154 590.0973,66.250247"
       id="path3272"
       inkscape:connector-curvature="0" />
    <text
       xml:space="preserve"
       style="font-size:40px;font-style:normal;font-variant:normal;font-weight:normal;font-stretch:normal;line-height:125%;letter-spacing:0px;word-spacing:0px;fill:#000000;fill-opacity:1;stroke:none;font-family:Arial;-inkscape-font-specification:Arial"
       x="127.69997"
       y="448.34045"
       id="text4314"
       sodipodi:linespacing="125%"><tspan
         sodipodi:role="line"
         id="tspan4316"
         x="127.69997"
         y="448.34045">Video</tspan></text>
    <text
       xml:space="preserve"
       style="font-size:40px;font-style:normal;font-variant:normal;font-weight:normal;font-stretch:normal;line-height:125%;letter-spacing:0px;word-spacing:0px;fill:#000000;fill-opacity:1;stroke:none;font-family:Arial;-inkscape-font-specification:Arial"
       x="117.59845"
       y="354.39624"
       id="text4318"
       sodipodi:linespacing="125%"><tspan
         sodipodi:role="line"
         id="tspan4320"
         x="117.59845"
         y="354.39624">Image</tspan></text>
    <text
       xml:space="preserve"
       style="font-size:40px;font-style:normal;font-variant:normal;font-weight:normal;font-stretch:normal;line-height:125%;letter-spacing:0px;word-spacing:0px;fill:#000000;fill-opacity:1;stroke:none;font-family:Arial;-inkscape-font-specification:Arial"
       x="127.44743"
       y="278.63483"
       id="text4322"
       sodipodi:linespacing="125%"><tspan
         sodipodi:role="line"
         id="tspan4324"
         x="127.44743"
         y="278.63483">Image</tspan></text>
    <text
       xml:space="preserve"
       style="font-size:40px;font-style:normal;font-variant:normal;font-weight:normal;font-stretch:normal;line-height:125%;letter-spacing:0px;word-spacing:0px;fill:#000000;fill-opacity:1;stroke:none;font-family:Arial;-inkscape-font-specification:Arial"
       x="191.52032"
       y="190.48413"
       id="text4326"
       sodipodi:linespacing="125%"><tspan
         sodipodi:role="line"
         id="tspan4328"
         x="191.52032"
         y="190.48413">Article</tspan></text>
    <text
       xml:space="preserve"
       style="font-size:23.53244209px;font-style:normal;font-variant:normal;font-weight:normal;font-stretch:normal;line-height:125%;letter-spacing:0px;word-spacing:0px;fill:#000000;fill-opacity:1;stroke:none;font-family:Arial;-inkscape-font-specification:Arial"
       x="229.17064"
       y="258.21939"
       id="text4330"
       sodipodi:linespacing="125%"
       transform="scale(1.0571772,0.94591522)"><tspan
         sodipodi:role="line"
         id="tspan4332"
         x="229.17064"
         y="258.21939">Sentence</tspan></text>
    <text
       xml:space="preserve"
       style="font-size:23.53244209px;font-style:normal;font-variant:normal;font-weight:normal;font-stretch:normal;line-height:125%;letter-spacing:0px;word-spacing:0px;fill:#000000;fill-opacity:1;stroke:none;font-family:Arial;-inkscape-font-specification:Arial"
       x="223.64932"
       y="306.99356"
       id="text4330-9"
       sodipodi:linespacing="125%"
       transform="scale(1.0571772,0.94591522)"><tspan
         sodipodi:role="line"
         id="tspan4332-9"
         x="223.64932"
         y="306.99356">Sentence</tspan></text>
    <text
       xml:space="preserve"
       style="font-size:23.53244209px;font-style:normal;font-variant:normal;font-weight:normal;font-stretch:normal;line-height:125%;letter-spacing:0px;word-spacing:0px;fill:#000000;fill-opacity:1;stroke:none;font-family:Arial;-inkscape-font-specification:Arial"
       x="225.56036"
       y="343.30249"
       id="text4330-0"
       sodipodi:linespacing="125%"
       transform="scale(1.0571772,0.94591522)"><tspan
         sodipodi:role="line"
         id="tspan4332-8"
         x="225.56036"
         y="343.30249">Sentence</tspan></text>
    <text
       xml:space="preserve"
       style="font-size:23.53244209px;font-style:normal;font-variant:normal;font-weight:normal;font-stretch:normal;line-height:125%;letter-spacing:0px;word-spacing:0px;fill:#000000;fill-opacity:1;stroke:none;font-family:Arial;-inkscape-font-specification:Arial"
       x="221.73828"
       y="389.22263"
       id="text4330-93"
       sodipodi:linespacing="125%"
       transform="scale(1.0571772,0.94591522)"><tspan
         sodipodi:role="line"
         id="tspan4332-1"
         x="221.73828"
         y="389.22263">Sentence</tspan></text>
    <text
       xml:space="preserve"
       style="font-size:23.53244209px;font-style:normal;font-variant:normal;font-weight:normal;font-stretch:normal;line-height:125%;letter-spacing:0px;word-spacing:0px;fill:#000000;fill-opacity:1;stroke:none;font-family:Arial;-inkscape-font-specification:Arial"
       x="218.87173"
       y="433.00696"
       id="text4330-4"
       sodipodi:linespacing="125%"
       transform="scale(1.0571772,0.94591522)"><tspan
         sodipodi:role="line"
         id="tspan4332-89"
         x="218.87173"
         y="433.00696">Link</tspan></text>
    <text
       xml:space="preserve"
       style="font-size:23.53244209px;font-style:normal;font-variant:normal;font-weight:normal;font-stretch:normal;line-height:125%;letter-spacing:0px;word-spacing:0px;fill:#000000;fill-opacity:1;stroke:none;font-family:Arial;-inkscape-font-specification:Arial"
       x="208.36102"
       y="496.01367"
       id="text4330-1"
       sodipodi:linespacing="125%"
       transform="scale(1.0571772,0.94591522)"><tspan
         sodipodi:role="line"
         id="tspan4332-6"
         x="208.36102"
         y="496.01367">Sentence</tspan></text>
    <text
       xml:space="preserve"
       style="font-size:23.53244209px;font-style:normal;font-variant:normal;font-weight:normal;font-stretch:normal;line-height:125%;letter-spacing:0px;word-spacing:0px;fill:#000000;fill-opacity:1;stroke:none;font-family:Arial;-inkscape-font-specification:Arial"
       x="208.36104"
       y="537.66217"
       id="text4330-6"
       sodipodi:linespacing="125%"
       transform="scale(1.0571772,0.94591522)"><tspan
         sodipodi:role="line"
         id="tspan4332-5"
         x="208.36104"
         y="537.66217">Sentence</tspan></text>
    <text
       xml:space="preserve"
       style="font-size:40px;font-style:normal;font-variant:normal;font-weight:normal;font-stretch:normal;line-height:125%;letter-spacing:0px;word-spacing:0px;fill:#000000;fill-opacity:1;stroke:none;font-family:Arial;-inkscape-font-specification:Arial"
       x="191.08705"
       y="70.290855"
       id="text4412"
       sodipodi:linespacing="125%"><tspan
         sodipodi:role="line"
         id="tspan4414"
         x="191.08705"
         y="70.290855">Tag</tspan></text>
    <text
       xml:space="preserve"
       style="font-size:40px;font-style:normal;font-variant:normal;font-weight:normal;font-stretch:normal;line-height:125%;letter-spacing:0px;word-spacing:0px;fill:#000000;fill-opacity:1;stroke:none;font-family:Arial;-inkscape-font-specification:Arial"
       x="270.31204"
       y="72.317062"
       id="text4412-5"
       sodipodi:linespacing="125%"><tspan
         sodipodi:role="line"
         id="tspan4414-6"
         x="270.31204"
         y="72.317062">Tag</tspan></text>
    <text
       xml:space="preserve"
       style="font-size:40px;font-style:normal;font-variant:normal;font-weight:normal;font-stretch:normal;line-height:125%;letter-spacing:0px;word-spacing:0px;fill:#000000;fill-opacity:1;stroke:none;font-family:Arial;-inkscape-font-specification:Arial"
       x="339.50748"
       y="72.822128"
       id="text4412-56"
       sodipodi:linespacing="125%"><tspan
         sodipodi:role="line"
         id="tspan4414-8"
         x="339.50748"
         y="72.822128">Tag</tspan></text>
    <text
       xml:space="preserve"
       style="font-size:40px;font-style:normal;font-variant:normal;font-weight:normal;font-stretch:normal;line-height:125%;letter-spacing:0px;word-spacing:0px;fill:#000000;fill-opacity:1;stroke:none;font-family:Arial;-inkscape-font-specification:Arial"
       x="402.642"
       y="74.842438"
       id="text4412-4"
       sodipodi:linespacing="125%"><tspan
         sodipodi:role="line"
         id="tspan4414-88"
         x="402.642"
         y="74.842438">Tag</tspan></text>
    <text
       xml:space="preserve"
       style="font-size:40px;font-style:normal;font-variant:normal;font-weight:normal;font-stretch:normal;line-height:125%;letter-spacing:0px;word-spacing:0px;fill:#000000;fill-opacity:1;stroke:none;font-family:Arial;-inkscape-font-specification:Arial"
       x="469.3121"
       y="74.337364"
       id="text4412-3"
       sodipodi:linespacing="125%"><tspan
         sodipodi:role="line"
         id="tspan4414-87"
         x="469.3121"
         y="74.337364">Tag</tspan></text>
    <text
       xml:space="preserve"
       style="font-size:40px;font-style:normal;font-variant:normal;font-weight:normal;font-stretch:normal;line-height:125%;letter-spacing:0px;word-spacing:0px;fill:#000000;fill-opacity:1;stroke:none;font-family:Arial;-inkscape-font-specification:Arial"
       x="548.61328"
       y="81.041031"
       id="text4412-2"
       sodipodi:linespacing="125%"><tspan
         sodipodi:role="line"
         id="tspan4414-4"
         x="548.61328"
         y="81.041031">Tag</tspan></text>
    <text
       xml:space="preserve"
       style="font-size:40px;font-style:normal;font-variant:normal;font-weight:normal;font-stretch:normal;line-height:125%;letter-spacing:0px;word-spacing:0px;fill:#000000;fill-opacity:1;stroke:none;font-family:Arial;-inkscape-font-specification:Arial"
       x="563.10132"
       y="190.01564"
       id="text4326-5"
       sodipodi:linespacing="125%"><tspan
         sodipodi:role="line"
         id="tspan4328-0"
         x="563.10132"
         y="190.01564">Article</tspan></text>
    <text
       xml:space="preserve"
       style="font-size:40px;font-style:normal;font-variant:normal;font-weight:normal;font-stretch:normal;line-height:125%;letter-spacing:0px;word-spacing:0px;fill:#000000;fill-opacity:1;stroke:none;font-family:Arial;-inkscape-font-specification:Arial"
       x="477.63531"
       y="274.61246"
       id="text4322-5"
       sodipodi:linespacing="125%"><tspan
         sodipodi:role="line"
         id="tspan4324-7"
         x="477.63531"
         y="274.61246">Image</tspan></text>
    <text
       xml:space="preserve"
       style="font-size:23.53244209px;font-style:normal;font-variant:normal;font-weight:normal;font-stretch:normal;line-height:125%;letter-spacing:0px;word-spacing:0px;fill:#000000;fill-opacity:1;stroke:none;font-family:Arial;-inkscape-font-specification:Arial"
       x="567.08374"
       y="259.35638"
       id="text4330-3"
       sodipodi:linespacing="125%"
       transform="scale(1.0571772,0.94591522)"><tspan
         sodipodi:role="line"
         id="tspan4332-2"
         x="567.08374"
         y="259.35638">Sentence</tspan></text>
    <text
       xml:space="preserve"
       style="font-size:23.53244209px;font-style:normal;font-variant:normal;font-weight:normal;font-stretch:normal;line-height:125%;letter-spacing:0px;word-spacing:0px;fill:#000000;fill-opacity:1;stroke:none;font-family:Arial;-inkscape-font-specification:Arial"
       x="566.40808"
       y="316.746"
       id="text4330-7"
       sodipodi:linespacing="125%"
       transform="scale(1.0571772,0.94591522)"><tspan
         sodipodi:role="line"
         id="tspan4332-21"
         x="566.40808"
         y="316.746">Sentence</tspan></text>
    <rect
       style="opacity:0.55731225;fill:#b3b3b3;fill-opacity:1;stroke:#282828;stroke-width:4.33400011;stroke-linecap:round;stroke-linejoin:round;stroke-miterlimit:4;stroke-opacity:1;stroke-dasharray:none;stroke-dashoffset:0"
       id="rect4545"
       width="122.85714"
       height="101.42857"
       x="-25.714283"
       y="0.93361008" />
    <text
       xml:space="preserve"
       style="font-size:40px;font-style:normal;font-variant:normal;font-weight:normal;font-stretch:normal;line-height:125%;letter-spacing:0px;word-spacing:0px;fill:#000000;fill-opacity:1;stroke:none;font-family:Arial;-inkscape-font-specification:Arial"
       x="-1.0899131e-06"
       y="63.790756"
       id="text4547"
       sodipodi:linespacing="125%"><tspan
         sodipodi:role="line"
         id="tspan4549"
         x="-1.0899131e-06"
         y="63.790756">RSS</tspan></text>
    <rect
       style="opacity:0.55731225;fill:#b3b3b3;fill-opacity:1;stroke:#282828;stroke-width:4.33400011;stroke-linecap:round;stroke-linejoin:round;stroke-miterlimit:4;stroke-opacity:1;stroke-dasharray:none;stroke-dashoffset:0"
       id="rect4545-4"
       width="122.85714"
       height="101.42857"
       x="748.57147"
       y="-14.066391" />
    <text
       xml:space="preserve"
       style="font-size:40px;font-style:normal;font-variant:normal;font-weight:normal;font-stretch:normal;line-height:125%;letter-spacing:0px;word-spacing:0px;fill:#000000;fill-opacity:1;stroke:none;font-family:Arial;-inkscape-font-specification:Arial"
       x="752.85724"
       y="51.647896"
       id="text4547-9"
       sodipodi:linespacing="125%"><tspan
         sodipodi:role="line"
         id="tspan4549-9"
         x="752.85724"
         y="51.647896">Search</tspan></text>
    <path
       style="fill:none;stroke:#000000;stroke-width:1px;stroke-linecap:butt;stroke-linejoin:miter;stroke-opacity:1"
       d="m 15.714286,58.076468 c 1.904761,0 3.846513,-0.373555 5.714285,0 0.660358,0.132071 0.826233,1.127402 1.428572,1.428571 0.425917,0.212959 1.091854,-0.336717 1.428571,0 0.336718,0.336718 -0.336717,1.091854 0,1.428572 0.336718,0.336717 1.091854,-0.336718 1.428572,0 0.336717,0.336717 -0.336718,1.091854 0,1.428571 0.673435,0.673435 2.183707,-0.673435 2.857142,0 0.336718,0.336718 -0.336717,1.091854 0,1.428572 0.336718,0.336717 1.002654,-0.212959 1.428572,0 0.602338,0.301169 0.826233,1.127402 1.428571,1.428571 0.425918,0.212959 1.091854,-0.336718 1.428572,0 0.336717,0.336717 -0.336718,1.091854 0,1.428571 0.336717,0.336718 1.002653,-0.212958 1.428571,0 0.602339,0.30117 0.826233,1.127403 1.428572,1.428572 0.425917,0.212959 1.002653,-0.212959 1.428571,0 0.602339,0.301169 0.826233,1.127402 1.428571,1.428571 0.425918,0.212959 1.032357,-0.264143 1.428572,0 2.102105,1.401403 3.612181,4.312883 5.714286,5.714286 0.885962,0.590642 1.97118,0.83793 2.857142,1.428571 1.680996,1.120664 2.669471,3.073532 4.285715,4.285715 0.851835,0.638876 1.904762,0.952381 2.857143,1.428571 0.952381,0.952381 1.779646,2.049021 2.857142,2.857143 0.851836,0.638877 2.005308,0.789695 2.857143,1.428571 1.077496,0.808122 1.805414,2.01576 2.857143,2.857143 1.340697,1.072557 2.945018,1.784586 4.285714,2.857143 1.051729,0.841383 1.779647,2.049021 2.857143,2.857143 0.851836,0.638877 2.10422,0.675648 2.857143,1.428571 4.254177,4.254174 -2.136587,1.860905 4.285714,5.714284 1.291253,0.77475 2.994462,0.65382 4.285715,1.42857 3.53426,2.12056 2.794494,4.22307 5.714286,7.14286 0.752923,0.75292 2.025678,0.7634 2.857142,1.42857 3.658537,2.92683 6.341464,7.07317 9.999999,10 1.67025,2.59251 4.92154,2.61973 7.14286,4.28572 2.15499,1.61624 3.55929,4.09804 5.71428,5.71428 0.85184,0.63888 1.97119,0.83793 2.85715,1.42857 0.56033,0.37356 0.78969,1.21562 1.42857,1.42857 0.90351,0.30117 1.95363,-0.30116 2.85714,0 0.96736,0.32246 3.19445,3.74008 4.28572,4.28572 0.42591,0.21296 1.00265,-0.21296 1.42857,0 0.60234,0.30117 0.82623,1.1274 1.42857,1.42857 0.42592,0.21296 1.00265,-0.21296 1.42857,0 0.60234,0.30117 0.86824,1.05502 1.42857,1.42857 0.88596,0.59064 1.97118,0.83793 2.85714,1.42857 0.56034,0.37356 0.86824,1.05502 1.42858,1.42857 1.77192,1.18129 3.94236,1.67586 5.71428,2.85715 0.56033,0.37355 0.86824,1.05501 1.42857,1.42857 0.88597,0.59064 1.90477,0.95238 2.85715,1.42857 1.90476,0.95238 3.80952,1.90476 5.71428,2.85714 0.95238,0.47619 2.00531,0.7897 2.85714,1.42857 1.0775,0.80813 1.65247,2.25481 2.85715,2.85715 4.52646,2.26323 1.32942,-2.95629 5.71428,1.42857 0.75293,0.75292 0.67565,2.10422 1.42857,2.85714 3.60844,3.60843 1.64684,0.54895 4.28572,1.42857 10.34774,3.44925 -2.2523,-0.41186 4.28571,2.85715 0.42592,0.21296 1.09186,-0.33672 1.42857,0 0.33672,0.33671 -0.33671,1.09185 0,1.42857 0.67344,0.67343 2.18371,-0.67344 2.85715,0 0.33672,0.33672 -0.33672,1.09185 0,1.42857 0.67343,0.67343 2.18371,-0.67344 2.85714,0 0.33672,0.33672 -0.33672,1.09185 0,1.42857 0.33672,0.33672 1.00265,-0.21296 1.42857,0 0.60234,0.30117 0.82623,1.1274 1.42857,1.42857 0.42592,0.21296 1.09186,-0.33672 1.42857,0 0.33672,0.33672 -0.33671,1.09186 0,1.42857 0.33672,0.33672 0.95239,0 1.42858,0 0.47619,0 0.95238,0 1.42857,0"
       id="path4575"
       inkscape:connector-curvature="0" />
    <path
       style="fill:none;stroke:#000000;stroke-width:1px;stroke-linecap:butt;stroke-linejoin:miter;stroke-opacity:1"
       d="m 801.42857,69.505039 c -0.83845,1.676902 -2.0849,5.675648 -4.28571,7.142857 -0.88596,0.590642 -2.10422,0.675649 -2.85714,1.428572 -0.75293,0.752923 -0.67565,2.104219 -1.42857,2.857143 -0.75293,0.752923 -2.00531,0.789695 -2.85715,1.428571 -2.15499,1.616244 -3.55929,4.098042 -5.71428,5.714286 -0.85184,0.638876 -2.00531,0.789695 -2.85715,1.428571 -1.07749,0.808122 -1.90476,1.904762 -2.85714,2.857143 -1.62998,1.629984 -5.36454,5.809117 -7.14286,7.142857 -1.70367,1.277751 -4.01061,1.579391 -5.71428,2.857141 -2.15499,1.61625 -3.55929,4.09804 -5.71429,5.71429 -0.85183,0.63887 -1.94409,0.88074 -2.85714,1.42857 -3.35397,2.01238 -3.87734,2.97951 -7.14286,4.28571 -1.39814,0.55926 -2.93884,0.75514 -4.28571,1.42857 -1.53567,0.76784 -2.81346,1.97379 -4.28572,2.85715 -0.91305,0.54783 -1.94408,0.88074 -2.85714,1.42857 -15.79647,10.53098 3.83917,-2.3035 -7.14286,4.28571 -2.9445,1.76671 -5.50009,4.17862 -8.57142,5.71429 -1.34687,0.67343 -2.93885,0.75514 -4.28572,1.42857 -1.53567,0.76783 -2.81346,1.97379 -4.28571,2.85714 -0.91306,0.54784 -2.00531,0.7897 -2.85715,1.42857 -1.07749,0.80813 -1.70221,2.16419 -2.85714,2.85715 -8.19438,2.73146 -0.86776,-0.42061 -7.14286,4.28571 -0.85183,0.63888 -1.94408,0.88074 -2.85714,1.42857 -3.35397,2.01239 -3.87734,2.97951 -7.14286,4.28572 -1.39814,0.55926 -3.08103,0.52506 -4.28571,1.42857 -0.85184,0.63888 -0.67565,2.10422 -1.42857,2.85714 -0.75292,0.75293 -1.90476,0.95238 -2.85714,1.42857 -0.95238,0.47619 -1.82414,1.17032 -2.85715,1.42857 -0.92394,0.23099 -1.95363,-0.30116 -2.85714,0 -1.27775,0.42592 -1.65247,2.25481 -2.85714,2.85715 -0.42592,0.21296 -1.00266,-0.21296 -1.42857,0 -0.60234,0.30117 -0.82624,1.1274 -1.42858,1.42857 -0.42591,0.21296 -1.09185,-0.33672 -1.42857,0 -0.33671,0.33672 0.33672,1.09185 0,1.42857 -0.33671,0.33672 -1.00265,-0.21296 -1.42857,0 -1.20468,0.60234 -1.65246,2.2548 -2.85714,2.85714 -0.42592,0.21296 -1.00265,-0.21296 -1.42857,0 -0.60234,0.30117 -0.82624,1.12741 -1.42857,1.42857 -0.42592,0.21296 -1.09186,-0.33671 -1.42858,0 -1.90476,1.90477 2.38096,1.42858 -1.42857,1.42858"
       id="path4577"
       inkscape:connector-curvature="0" />
    <rect
       style="opacity:0.55731225;fill:#b3b3b3;fill-opacity:1;stroke:#282828;stroke-width:4.33400011;stroke-linecap:round;stroke-linejoin:round;stroke-miterlimit:4;stroke-opacity:1;stroke-dasharray:none;stroke-dashoffset:0"
       id="rect4579"
       width="540"
       height="291.42856"
       x="215.71428"
       y="610.93359" />
    <rect
       style="opacity:0.55731225;fill:#b3b3b3;fill-opacity:1;stroke:#282828;stroke-width:4.33400011;stroke-linecap:round;stroke-linejoin:round;stroke-miterlimit:4;stroke-opacity:1;stroke-dasharray:none;stroke-dashoffset:0"
       id="rect4581"
       width="150"
       height="128.57143"
       x="232.85713"
       y="633.79077" />
    <rect
       style="opacity:0.55731225;fill:#b3b3b3;fill-opacity:1;stroke:#282828;stroke-width:4.33400011;stroke-linecap:round;stroke-linejoin:round;stroke-miterlimit:4;stroke-opacity:1;stroke-dasharray:none;stroke-dashoffset:0"
       id="rect4583"
       width="315.71429"
       height="235.71428"
       x="410"
       y="635.2193" />
    <rect
       style="opacity:0.55731225;fill:#b3b3b3;fill-opacity:1;stroke:#282828;stroke-width:4.33400011;stroke-linecap:round;stroke-linejoin:round;stroke-miterlimit:4;stroke-opacity:1;stroke-dasharray:none;stroke-dashoffset:0"
       id="rect4585"
       width="145.71428"
       height="30"
       x="237.14285"
       y="840.93359" />
  </g>
</svg>
